PathFileType	4	(X/Y/Z)	Patient4_TMGait_0pt4_03_left_29.trc.trc
DataRate	CameraRate	NumFrames	NumMarkers	Units	OrigDataRate	OrigDataStartFrame	OrigNumFrames
74.074074074074	74.074074074074	4	33	mm	74.074074074074	18	       141
Frame#	Time	Sacral			L.Shoulder			Chest			R.Shoulder			Neck			R.ASIS			L.ASIS			R.Thigh.Superior			R.Thigh.Lateral			R.Thigh.Inferior			R.Patella			L.Thigh.Superior			L.Thigh.Lateral			L.Thigh.Inferior			L.Patella			L.Shank.Superior			L.Shank.Lateral			L.Shank.Inferior			R.Shank.Superior			R.Shank.Lateral			R.Shank.Inferior			R.Heel			R.Midfoot.Superior			R.Midfoot.Lateral			R.Toe			L.Heel			L.Midfoot.Lateral			L.Midfoot.Superior			L.Toe			L.Elbow			L.Wrist			R.Elbow			R.Wrist			
		X1	Y1	Z1	X2	Y2	Z2	X3	Y3	Z3	X4	Y4	Z4	X5	Y5	Z5	X6	Y6	Z6	X7	Y7	Z7	X8	Y8	Z8	X9	Y9	Z9	X10	Y10	Z10	X11	Y11	Z11	X12	Y12	Z12	X13	Y13	Z13	X14	Y14	Z14	X15	Y15	Z15	X16	Y16	Z16	X17	Y17	Z17	X18	Y18	Z18	X19	Y19	Z19	X20	Y20	Z20	X21	Y21	Z21	X22	Y22	Z22	X23	Y23	Z23	X24	Y24	Z24	X25	Y25	Z25	X26	Y26	Z26	X27	Y27	Z27	X28	Y28	Z28	X29	Y29	Z29	X30	Y30	Z30	X31	Y31	Z31	X32	Y32	Z32	X33	Y33	Z33	

18	38.429500000000	860.984777828700	1013.017897702268	503.814138491374	1028.883447115141	1433.226077233695	302.747835633459	1154.229367947547	1359.623639914744	444.550263136246	1105.740040739111	1435.597037479318	630.459270089896	1038.293928690345	1494.990308923455	459.626336806798	1098.566844423864	938.077577416105	590.863588368199	1052.790792225821	963.141064976676	319.427363496843	1102.760280511043	730.058149605845	562.957550359809	1011.485376920114	633.294119362069	634.400835658752	1070.019881718741	570.664921135952	549.476641457634	1058.573299970339	488.359474951574	557.422035476275	1124.211445039072	778.795138491424	344.210283535286	1077.091331252364	652.934616120837	262.024101122542	1179.966463372645	591.622413744531	322.087299015384	1207.215510709769	526.858224166327	314.233652534339	1187.788352274306	455.886854468311	302.580201103684	1117.032641579132	328.915940384031	249.089363658030	1203.586501298761	225.651791747576	298.495883747130	1027.618558969246	401.855650571056	566.750806224088	955.737250995089	300.999133551121	632.805608563055	990.720277236833	204.715039924371	566.666269130847	851.771831814484	42.163455350883	540.035519432470	1022.805300914474	96.023824147465	573.183310485804	935.863022561356	36.473448140191	613.604705214579	1143.913753462744	44.414373130653	600.175064554359	1118.281704995276	46.757387253684	335.680185345497	1191.268948402269	49.242598064141	255.112191090103	1263.189415969885	127.372055255441	275.035907713639	1396.376741307587	96.909475073653	246.675180138084	890.661083327923	1100.184754400050	227.352161476553	859.764204190604	841.190261825273	229.535411330719	1210.110082278542	1112.367922476598	753.193124169877	1452.403933416437	1141.027421892141	690.521924053271	
19	38.443000000000	861.353643138960	1012.305566304187	502.332558803290	1027.811780285428	1432.547005891544	300.444295968344	1153.577306412124	1359.314126159826	442.048700751047	1105.273814563085	1435.293547246881	627.983703908040	1037.387423695604	1494.424096850628	457.243368421948	1099.196460197519	937.636283225187	589.120341139277	1052.931440630422	962.121968226347	317.539731963385	1101.961299526664	729.155098716961	561.536956230901	1009.904232231452	632.990804124320	633.311927639803	1067.643869750100	569.877057231320	548.449257991031	1055.465375485059	487.545830051631	556.474985710164	1123.907590235893	777.125402923924	342.404513397254	1074.809655570460	650.552002261982	262.104589355605	1178.218076131311	589.444753680795	320.987605986928	1204.822527184874	524.772320862917	314.264961253446	1185.565597944994	453.665456004531	303.211487779432	1114.729860076543	326.438007876935	250.856678995224	1201.460017632236	223.592615591939	300.520996936778	1024.088821884001	401.279430349265	566.040418202943	951.696777351135	300.904074785232	632.308871446281	985.989860940362	204.356382707763	566.323151793916	846.280895494002	42.074720390467	540.043077002161	1017.281587810806	95.997348411071	573.134730907472	930.354321526789	36.423936823445	613.639236412539	1138.391810670484	44.548771579514	600.174677484273	1115.999681584622	45.893562605139	338.957583528502	1188.837225762967	47.281342105308	258.284677705269	1261.406591821285	124.582895369079	277.743391280411	1394.134215609400	92.725086053675	249.504174052951	888.633361633833	1099.979782304196	225.947301583544	856.088034744136	841.247371802328	228.180890574922	1212.106223382217	1112.252593671429	748.664060485882	1453.307152376678	1146.051433528558	685.354659734985	
20	38.456500000000	861.997445575152	1011.380456693353	500.602892660486	1026.627533788914	1431.761175361143	297.938183372900	1152.850290660517	1359.069908118409	439.393842413722	1104.568464094759	1434.986938820484	625.348736460911	1036.318231854285	1493.787826862082	454.652994943236	1100.105170052793	937.155096922847	587.265164990349	1053.475937084579	961.025575214807	315.563911947422	1101.593211602142	728.208048161362	560.013404212524	1008.742372989444	632.586797138527	632.055336221720	1065.765670857686	569.007142788359	547.291445608957	1052.857606410847	486.606214309065	555.364070878580	1124.237459076928	775.335711626062	340.478001654375	1072.908375603220	648.036413584752	262.338382194481	1176.845691834820	587.146035968814	320.044645862922	1202.556257444177	522.251251005677	314.480911618249	1183.105102393055	450.896667414822	303.996153948547	1111.367890879628	323.880787688533	252.851979805783	1197.592610435206	220.938360234961	302.777848618388	1020.946596454955	400.572343553125	565.176220799428	947.964210253804	300.789563121357	631.726984136021	981.405752148252	203.920055339338	565.906851592875	840.799989019422	41.973342509262	540.052756071354	1011.771494956424	95.951349371440	573.070170902878	924.855253214636	36.361022627831	613.671613965310	1132.880956383994	44.633607590166	600.178635638133	1110.852589875056	45.043573051716	342.447924829078	1183.392853574484	45.230000901298	261.508215292659	1257.127483072585	121.091364863736	280.683383997460	1389.137968244318	87.112484226616	252.159368661863	887.096439254627	1099.428793904039	224.085333498657	853.815086126940	840.837879308938	226.153940981693	1213.417405643254	1111.994756926974	744.198581637555	1453.591225681559	1150.150254738947	680.288554689473	
21	38.470000000000	862.893948200075	1010.264347947042	498.632934879231	1025.359782606289	1430.871338721276	295.234964954941	1152.071566420569	1358.887360912937	436.591528920855	1103.652405029380	1434.677613479581	622.564313183924	1035.117931982727	1493.088746030411	451.861065732117	1101.272086447411	936.629911847153	585.291683318539	1054.399738981333	959.881689423750	313.514417859060	1101.668853834708	727.219098129797	558.375242410432	1008.020844627806	632.079073597180	630.615232509793	1064.397497981701	568.051177740182	545.977207805121	1050.762308310910	485.534613133959	554.056707489042	1125.123190031000	773.405495555021	338.487434769721	1071.380530167598	645.470383827195	262.645764806992	1175.764840629359	584.751267653328	319.314211839139	1200.350413607344	519.372727529866	314.902878493181	1180.457304182296	447.704328787442	304.890901189252	1107.237732770743	321.249261897289	254.916047778910	1192.406272791629	217.803637195191	305.157904815852	1018.202709308086	399.733771018181	564.132637882916	944.554929063785	300.661280983791	631.050737372310	976.973118703172	203.411025682321	565.408522562803	835.331972936174	41.867156474122	540.068669755277	1006.281463037726	95.887490897629	572.987822450316	919.371473524586	36.286830836522	613.700302086878	1127.389272786160	44.651754490620	600.188694501236	1103.518229226543	44.123220109138	345.916200366340	1175.679982371971	43.161174935003	264.603561537710	1250.934162472986	117.120706630345	283.759671169776	1382.076170019629	80.553574765415	254.641297517385	886.069844128968	1098.528315998704	221.770478556360	852.942911843662	839.952614660165	223.483166296717	1214.041139166421	1111.568072208676	739.831795039383	1453.310817051598	1153.282617110738	675.364927213933	
